<?xml version="1.0" encoding="utf-8"?>
<svg xmlns="http://www.w3.org/2000/svg" version="1.1" width="1000" height="800">

<circle cx="375" cy="340" r="5" fill="black" />
<text x="357" y="331" fill="purple" >9</text>
<circle cx="275" cy="340" r="5" fill="black" />
<text x="257" y="331" fill="purple" >8</text>
<circle cx="175" cy="340" r="5" fill="black" />
<text x="157" y="331" fill="purple" >7</text>
<circle cx="75" cy="340" r="5" fill="black" />
<text x="57" y="331" fill="purple" >6</text>
<circle cx="325" cy="255" r="5" fill="black" />
<text x="307" y="246" fill="purple" >5</text>
<circle cx="225" cy="255" r="5" fill="black" />
<text x="207" y="246" fill="purple" >4</text>
<circle cx="225" cy="85" r="5" fill="black" />
<text x="207" y="76" fill="purple" >0</text>
<circle cx="125" cy="255" r="5" fill="black" />
<text x="107" y="246" fill="purple" >3</text>
<circle cx="175" cy="170" r="5" fill="black" />
<text x="157" y="161" fill="purple" >1</text>
<circle cx="275" cy="170" r="5" fill="black" />
<text x="257" y="161" fill="purple" >2</text>
<line x1="275" y1="340" x2="375" y2="340" stroke="black" />
<text x="318" y="335" fill="green" >17</text>
<line x1="175" y1="340" x2="275" y2="340" stroke="black" />
<text x="218" y="335" fill="green" >16</text>
<line x1="325" y1="255" x2="375" y2="340" stroke="black" />
<text x="343" y="292.5" fill="green" >14</text>
<line x1="225" y1="255" x2="275" y2="340" stroke="black" />
<text x="243" y="292.5" fill="green" >12</text>
<line x1="225" y1="255" x2="175" y2="340" stroke="black" />
<text x="193" y="292.5" fill="green" >11</text>
<line x1="75" y1="340" x2="175" y2="340" stroke="black" />
<text x="118" y="335" fill="green" >15</text>
<line x1="175" y1="170" x2="275" y2="170" stroke="black" />
<text x="218" y="165" fill="green" >2</text>
<line x1="225" y1="85" x2="275" y2="170" stroke="black" />
<text x="243" y="122.5" fill="green" >1</text>
<line x1="175" y1="170" x2="225" y2="255" stroke="black" />
<text x="193" y="207.5" fill="green" >4</text>
<line x1="275" y1="170" x2="225" y2="255" stroke="black" />
<text x="243" y="207.5" fill="green" >5</text>
<line x1="325" y1="255" x2="275" y2="340" stroke="black" />
<text x="293" y="292.5" fill="green" >13</text>
<line x1="125" y1="255" x2="175" y2="340" stroke="black" />
<text x="143" y="292.5" fill="green" >10</text>
<line x1="125" y1="255" x2="225" y2="255" stroke="black" />
<text x="168" y="250" fill="green" >7</text>
<line x1="175" y1="170" x2="125" y2="255" stroke="black" />
<text x="143" y="207.5" fill="green" >3</text>
<line x1="225" y1="255" x2="325" y2="255" stroke="black" />
<text x="268" y="250" fill="green" >8</text>
<line x1="225" y1="85" x2="175" y2="170" stroke="black" />
<text x="193" y="122.5" fill="green" >0</text>
<line x1="275" y1="170" x2="325" y2="255" stroke="black" />
<text x="293" y="207.5" fill="green" >6</text>
<line x1="125" y1="255" x2="75" y2="340" stroke="black" />
<text x="93" y="292.5" fill="green" >9</text>
<line x1="725" y1="85" x2="775" y2="170" stroke="black" />
<text x="743" y="122.5" fill="green" >1</text>
<circle cx="875" cy="340" r="5" fill="black" />
<text x="857" y="331" fill="purple" >9</text>
<circle cx="775" cy="340" r="5" fill="black" />
<text x="757" y="331" fill="purple" >8</text>
<circle cx="675" cy="340" r="5" fill="black" />
<text x="657" y="331" fill="purple" >7</text>
<circle cx="575" cy="340" r="5" fill="black" />
<text x="557" y="331" fill="purple" >6</text>
<circle cx="825" cy="255" r="5" fill="black" />
<text x="807" y="246" fill="purple" >5</text>
<circle cx="725" cy="255" r="5" fill="black" />
<text x="707" y="246" fill="purple" >4</text>
<circle cx="725" cy="85" r="5" fill="black" />
<text x="707" y="76" fill="purple" >0</text>
<circle cx="625" cy="255" r="5" fill="black" />
<text x="607" y="246" fill="purple" >3</text>
<circle cx="675" cy="170" r="5" fill="black" />
<text x="657" y="161" fill="purple" >1</text>
<circle cx="775" cy="170" r="5" fill="black" />
<text x="757" y="161" fill="purple" >2</text>
<line x1="775" y1="170" x2="675" y2="170" stroke="black" />
<text x="718" y="165" fill="green" >2</text>
<circle cx="875" cy="340" r="5" fill="black" />
<text x="857" y="331" fill="purple" >9</text>
<circle cx="775" cy="340" r="5" fill="black" />
<text x="757" y="331" fill="purple" >8</text>
<circle cx="675" cy="340" r="5" fill="black" />
<text x="657" y="331" fill="purple" >7</text>
<circle cx="575" cy="340" r="5" fill="black" />
<text x="557" y="331" fill="purple" >6</text>
<circle cx="825" cy="255" r="5" fill="black" />
<text x="807" y="246" fill="purple" >5</text>
<circle cx="725" cy="255" r="5" fill="black" />
<text x="707" y="246" fill="purple" >4</text>
<circle cx="725" cy="85" r="5" fill="black" />
<text x="707" y="76" fill="purple" >0</text>
<circle cx="625" cy="255" r="5" fill="black" />
<text x="607" y="246" fill="purple" >3</text>
<circle cx="675" cy="170" r="5" fill="black" />
<text x="657" y="161" fill="purple" >1</text>
<circle cx="775" cy="170" r="5" fill="black" />
<text x="757" y="161" fill="purple" >2</text>
<line x1="775" y1="170" x2="725" y2="255" stroke="black" />
<text x="743" y="207.5" fill="green" >5</text>
<circle cx="875" cy="340" r="5" fill="black" />
<text x="857" y="331" fill="purple" >9</text>
<circle cx="775" cy="340" r="5" fill="black" />
<text x="757" y="331" fill="purple" >8</text>
<circle cx="675" cy="340" r="5" fill="black" />
<text x="657" y="331" fill="purple" >7</text>
<circle cx="575" cy="340" r="5" fill="black" />
<text x="557" y="331" fill="purple" >6</text>
<circle cx="825" cy="255" r="5" fill="black" />
<text x="807" y="246" fill="purple" >5</text>
<circle cx="725" cy="255" r="5" fill="black" />
<text x="707" y="246" fill="purple" >4</text>
<circle cx="725" cy="85" r="5" fill="black" />
<text x="707" y="76" fill="purple" >0</text>
<circle cx="625" cy="255" r="5" fill="black" />
<text x="607" y="246" fill="purple" >3</text>
<circle cx="675" cy="170" r="5" fill="black" />
<text x="657" y="161" fill="purple" >1</text>
<circle cx="775" cy="170" r="5" fill="black" />
<text x="757" y="161" fill="purple" >2</text>
<line x1="725" y1="255" x2="775" y2="340" stroke="black" />
<text x="743" y="292.5" fill="green" >12</text>
<circle cx="875" cy="340" r="5" fill="black" />
<text x="857" y="331" fill="purple" >9</text>
<circle cx="775" cy="340" r="5" fill="black" />
<text x="757" y="331" fill="purple" >8</text>
<circle cx="675" cy="340" r="5" fill="black" />
<text x="657" y="331" fill="purple" >7</text>
<circle cx="575" cy="340" r="5" fill="black" />
<text x="557" y="331" fill="purple" >6</text>
<circle cx="825" cy="255" r="5" fill="black" />
<text x="807" y="246" fill="purple" >5</text>
<circle cx="725" cy="255" r="5" fill="black" />
<text x="707" y="246" fill="purple" >4</text>
<circle cx="725" cy="85" r="5" fill="black" />
<text x="707" y="76" fill="purple" >0</text>
<circle cx="625" cy="255" r="5" fill="black" />
<text x="607" y="246" fill="purple" >3</text>
<circle cx="675" cy="170" r="5" fill="black" />
<text x="657" y="161" fill="purple" >1</text>
<circle cx="775" cy="170" r="5" fill="black" />
<text x="757" y="161" fill="purple" >2</text>
<line x1="775" y1="340" x2="825" y2="255" stroke="black" />
<text x="793" y="292.5" fill="green" >13</text>
<circle cx="875" cy="340" r="5" fill="black" />
<text x="857" y="331" fill="purple" >9</text>
<circle cx="775" cy="340" r="5" fill="black" />
<text x="757" y="331" fill="purple" >8</text>
<circle cx="675" cy="340" r="5" fill="black" />
<text x="657" y="331" fill="purple" >7</text>
<circle cx="575" cy="340" r="5" fill="black" />
<text x="557" y="331" fill="purple" >6</text>
<circle cx="825" cy="255" r="5" fill="black" />
<text x="807" y="246" fill="purple" >5</text>
<circle cx="725" cy="255" r="5" fill="black" />
<text x="707" y="246" fill="purple" >4</text>
<circle cx="725" cy="85" r="5" fill="black" />
<text x="707" y="76" fill="purple" >0</text>
<circle cx="625" cy="255" r="5" fill="black" />
<text x="607" y="246" fill="purple" >3</text>
<circle cx="675" cy="170" r="5" fill="black" />
<text x="657" y="161" fill="purple" >1</text>
<circle cx="775" cy="170" r="5" fill="black" />
<text x="757" y="161" fill="purple" >2</text>
<line x1="825" y1="255" x2="875" y2="340" stroke="black" />
<text x="843" y="292.5" fill="green" >14</text>
<circle cx="875" cy="340" r="5" fill="black" />
<text x="857" y="331" fill="purple" >9</text>
<circle cx="775" cy="340" r="5" fill="black" />
<text x="757" y="331" fill="purple" >8</text>
<circle cx="675" cy="340" r="5" fill="black" />
<text x="657" y="331" fill="purple" >7</text>
<circle cx="575" cy="340" r="5" fill="black" />
<text x="557" y="331" fill="purple" >6</text>
<circle cx="825" cy="255" r="5" fill="black" />
<text x="807" y="246" fill="purple" >5</text>
<circle cx="725" cy="255" r="5" fill="black" />
<text x="707" y="246" fill="purple" >4</text>
<circle cx="725" cy="85" r="5" fill="black" />
<text x="707" y="76" fill="purple" >0</text>
<circle cx="625" cy="255" r="5" fill="black" />
<text x="607" y="246" fill="purple" >3</text>
<circle cx="675" cy="170" r="5" fill="black" />
<text x="657" y="161" fill="purple" >1</text>
<circle cx="775" cy="170" r="5" fill="black" />
<text x="757" y="161" fill="purple" >2</text>
<line x1="725" y1="255" x2="675" y2="340" stroke="black" />
<text x="693" y="292.5" fill="green" >11</text>
<circle cx="875" cy="340" r="5" fill="black" />
<text x="857" y="331" fill="purple" >9</text>
<circle cx="775" cy="340" r="5" fill="black" />
<text x="757" y="331" fill="purple" >8</text>
<circle cx="675" cy="340" r="5" fill="black" />
<text x="657" y="331" fill="purple" >7</text>
<circle cx="575" cy="340" r="5" fill="black" />
<text x="557" y="331" fill="purple" >6</text>
<circle cx="825" cy="255" r="5" fill="black" />
<text x="807" y="246" fill="purple" >5</text>
<circle cx="725" cy="255" r="5" fill="black" />
<text x="707" y="246" fill="purple" >4</text>
<circle cx="725" cy="85" r="5" fill="black" />
<text x="707" y="76" fill="purple" >0</text>
<circle cx="625" cy="255" r="5" fill="black" />
<text x="607" y="246" fill="purple" >3</text>
<circle cx="675" cy="170" r="5" fill="black" />
<text x="657" y="161" fill="purple" >1</text>
<circle cx="775" cy="170" r="5" fill="black" />
<text x="757" y="161" fill="purple" >2</text>
<line x1="675" y1="340" x2="575" y2="340" stroke="black" />
<text x="618" y="335" fill="green" >15</text>
<circle cx="875" cy="340" r="5" fill="black" />
<text x="857" y="331" fill="purple" >9</text>
<circle cx="775" cy="340" r="5" fill="black" />
<text x="757" y="331" fill="purple" >8</text>
<circle cx="675" cy="340" r="5" fill="black" />
<text x="657" y="331" fill="purple" >7</text>
<circle cx="575" cy="340" r="5" fill="black" />
<text x="557" y="331" fill="purple" >6</text>
<circle cx="825" cy="255" r="5" fill="black" />
<text x="807" y="246" fill="purple" >5</text>
<circle cx="725" cy="255" r="5" fill="black" />
<text x="707" y="246" fill="purple" >4</text>
<circle cx="725" cy="85" r="5" fill="black" />
<text x="707" y="76" fill="purple" >0</text>
<circle cx="625" cy="255" r="5" fill="black" />
<text x="607" y="246" fill="purple" >3</text>
<circle cx="675" cy="170" r="5" fill="black" />
<text x="657" y="161" fill="purple" >1</text>
<circle cx="775" cy="170" r="5" fill="black" />
<text x="757" y="161" fill="purple" >2</text>
<line x1="575" y1="340" x2="625" y2="255" stroke="black" />
<text x="593" y="292.5" fill="green" >9</text>
<circle cx="875" cy="340" r="5" fill="black" />
<text x="857" y="331" fill="purple" >9</text>
<circle cx="775" cy="340" r="5" fill="black" />
<text x="757" y="331" fill="purple" >8</text>
<circle cx="675" cy="340" r="5" fill="black" />
<text x="657" y="331" fill="purple" >7</text>
<circle cx="575" cy="340" r="5" fill="black" />
<text x="557" y="331" fill="purple" >6</text>
<circle cx="825" cy="255" r="5" fill="black" />
<text x="807" y="246" fill="purple" >5</text>
<circle cx="725" cy="255" r="5" fill="black" />
<text x="707" y="246" fill="purple" >4</text>
<circle cx="725" cy="85" r="5" fill="black" />
<text x="707" y="76" fill="purple" >0</text>
<circle cx="625" cy="255" r="5" fill="black" />
<text x="607" y="246" fill="purple" >3</text>
<circle cx="675" cy="170" r="5" fill="black" />
<text x="657" y="161" fill="purple" >1</text>
<circle cx="775" cy="170" r="5" fill="black" />
<text x="757" y="161" fill="purple" >2</text>


</svg>
