<?xml version="1.0" encoding="utf-8"?>
<svg xmlns="http://www.w3.org/2000/svg" version="1.1" width="1000" height="800">

<circle cx="100" cy="200" r="5" fill="black" />
<circle cx="200" cy="100" r="5" fill="black" />
<circle cx="200" cy="200" r="5" fill="black" />
<circle cx="100" cy="100" r="5" fill="black" />
<line x1="100" y1="200" x2="200" y2="200" stroke="black" />
<text x="152" y="195" fill="red" >6</text>
<text x="161" y="195" fill="red" >;</text>
<text x="166" y="195" fill="red" >9</text>
<line x1="100" y1="100" x2="200" y2="100" stroke="black" />
<text x="152" y="95" fill="red" >8</text>
<text x="161" y="95" fill="red" >;</text>
<text x="166" y="95" fill="red" >5</text>
<line x1="200" y1="100" x2="200" y2="200" stroke="black" />
<text x="202" y="145" fill="red" >8</text>
<text x="211" y="145" fill="red" >;</text>
<text x="216" y="145" fill="red" >4</text>
<line x1="100" y1="100" x2="100" y2="200" stroke="black" />
<text x="102" y="145" fill="red" >2</text>
<text x="111" y="145" fill="red" >;</text>
<text x="116" y="145" fill="red" >5</text>
<line x1="200" y1="100" x2="100" y2="200" stroke="black" />
<text x="152" y="145" fill="red" >3</text>
<text x="161" y="145" fill="red" >;</text>
<text x="166" y="145" fill="red" >6</text>
<circle cx="730" cy="310" r="1.5" fill="green" />
<circle cx="705" cy="300" r="1.5" fill="green" />
<circle cx="715" cy="325" r="1.5" fill="green" />
<circle cx="760" cy="310" r="1.5" fill="green" />
<circle cx="735" cy="300" r="1.5" fill="green" />
<circle cx="745" cy="325" r="1.5" fill="green" />
<circle cx="730" cy="305" r="1.5" fill="green" />
<circle cx="740" cy="330" r="1.5" fill="green" />
<line x1="650" y1="400" x2="650" y2="50" stroke="black" />
<line x1="650" y1="400" x2="1000" y2="400" stroke="black" />
<line x1="650" y1="50" x2="645" y2="55" stroke="black" />
<line x1="650" y1="50" x2="655" y2="55" stroke="black" />
<line x1="1000" y1="400" x2="995" y2="395" stroke="black" />
<line x1="1000" y1="400" x2="995" y2="405" stroke="black" />


</svg>
