<?xml version="1.0" encoding="utf-8"?>
<svg xmlns="http://www.w3.org/2000/svg" version="1.1" width="1000" height="800">

<circle cx="300" cy="400" r="5" fill="black" />
<text x="282" y="391" fill="purple" >14</text>
<circle cx="100" cy="400" r="5" fill="black" />
<text x="82" y="391" fill="purple" >12</text>
<circle cx="400" cy="300" r="5" fill="black" />
<text x="382" y="291" fill="purple" >11</text>
<circle cx="400" cy="400" r="5" fill="black" />
<text x="382" y="391" fill="purple" >15</text>
<circle cx="300" cy="100" r="5" fill="black" />
<text x="282" y="91" fill="purple" >2</text>
<circle cx="200" cy="100" r="5" fill="black" />
<text x="182" y="91" fill="purple" >1</text>
<circle cx="100" cy="200" r="5" fill="black" />
<text x="82" y="191" fill="purple" >4</text>
<circle cx="200" cy="200" r="5" fill="black" />
<text x="182" y="191" fill="purple" >5</text>
<circle cx="200" cy="400" r="5" fill="black" />
<text x="182" y="391" fill="purple" >13</text>
<circle cx="300" cy="300" r="5" fill="black" />
<text x="282" y="291" fill="purple" >10</text>
<circle cx="400" cy="200" r="5" fill="black" />
<text x="382" y="191" fill="purple" >7</text>
<circle cx="400" cy="100" r="5" fill="black" />
<text x="382" y="91" fill="purple" >3</text>
<circle cx="100" cy="300" r="5" fill="black" />
<text x="82" y="291" fill="purple" >8</text>
<circle cx="100" cy="100" r="5" fill="black" />
<text x="82" y="91" fill="purple" >0</text>
<circle cx="300" cy="200" r="5" fill="black" />
<text x="282" y="191" fill="purple" >6</text>
<circle cx="200" cy="300" r="5" fill="black" />
<text x="182" y="291" fill="purple" >9</text>
<line x1="400" y1="300" x2="400" y2="400" stroke="black" />
<text x="393" y="345" fill="green" >23</text>
<line x1="300" y1="300" x2="300" y2="400" stroke="black" />
<text x="293" y="345" fill="green" >22</text>
<line x1="100" y1="400" x2="200" y2="400" stroke="black" />
<text x="143" y="395" fill="green" >9</text>
<line x1="100" y1="300" x2="200" y2="300" stroke="black" />
<text x="143" y="295" fill="green" >6</text>
<line x1="100" y1="200" x2="200" y2="200" stroke="black" />
<text x="143" y="195" fill="green" >3</text>
<line x1="200" y1="300" x2="300" y2="300" stroke="black" />
<text x="243" y="295" fill="green" >7</text>
<line x1="200" y1="400" x2="300" y2="400" stroke="black" />
<text x="243" y="395" fill="green" >10</text>
<line x1="200" y1="100" x2="200" y2="200" stroke="black" />
<text x="193" y="145" fill="green" >13</text>
<line x1="300" y1="200" x2="400" y2="200" stroke="black" />
<text x="343" y="195" fill="green" >5</text>
<line x1="100" y1="300" x2="100" y2="400" stroke="black" />
<text x="93" y="345" fill="green" >20</text>
<line x1="300" y1="300" x2="400" y2="300" stroke="black" />
<text x="343" y="295" fill="green" >8</text>
<line x1="200" y1="200" x2="300" y2="200" stroke="black" />
<text x="243" y="195" fill="green" >4</text>
<line x1="300" y1="100" x2="400" y2="100" stroke="black" />
<text x="343" y="95" fill="green" >2</text>
<line x1="200" y1="100" x2="300" y2="100" stroke="black" />
<text x="243" y="95" fill="green" >1</text>
<line x1="400" y1="100" x2="400" y2="200" stroke="black" />
<text x="393" y="145" fill="green" >15</text>
<line x1="300" y1="200" x2="300" y2="300" stroke="black" />
<text x="293" y="245" fill="green" >18</text>
<line x1="300" y1="400" x2="400" y2="400" stroke="black" />
<text x="343" y="395" fill="green" >11</text>
<line x1="300" y1="100" x2="300" y2="200" stroke="black" />
<text x="293" y="145" fill="green" >14</text>
<line x1="100" y1="200" x2="100" y2="300" stroke="black" />
<text x="93" y="245" fill="green" >16</text>
<line x1="100" y1="100" x2="100" y2="200" stroke="black" />
<text x="93" y="145" fill="green" >12</text>
<line x1="200" y1="300" x2="200" y2="400" stroke="black" />
<text x="193" y="345" fill="green" >21</text>
<line x1="200" y1="200" x2="200" y2="300" stroke="black" />
<text x="193" y="245" fill="green" >17</text>
<line x1="100" y1="100" x2="200" y2="100" stroke="black" />
<text x="143" y="95" fill="green" >0</text>
<line x1="400" y1="200" x2="400" y2="300" stroke="black" />
<text x="393" y="245" fill="green" >19</text>


</svg>
