<?xml version="1.0" encoding="utf-8"?>
<svg xmlns="http://www.w3.org/2000/svg" version="1.1" width="1000" height="800">

<circle cx="400" cy="400" r="5" fill="black" />
<circle cx="100" cy="400" r="5" fill="black" />
<circle cx="300" cy="300" r="5" fill="black" />
<circle cx="200" cy="300" r="5" fill="black" />
<circle cx="100" cy="100" r="5" fill="black" />
<circle cx="300" cy="200" r="5" fill="black" />
<circle cx="400" cy="100" r="5" fill="black" />
<circle cx="200" cy="200" r="5" fill="black" />
<line x1="100" y1="100" x2="400" y2="100" stroke="black" />
<text x="252" y="95" fill="red" >5</text>
<text x="261" y="95" fill="red" >;</text>
<text x="266" y="95" fill="red" >5</text>
<line x1="100" y1="100" x2="100" y2="400" stroke="black" />
<text x="102" y="245" fill="red" >2</text>
<text x="111" y="245" fill="red" >;</text>
<text x="116" y="245" fill="red" >3</text>
<line x1="100" y1="100" x2="200" y2="200" stroke="black" />
<text x="152" y="145" fill="red" >9</text>
<text x="161" y="145" fill="red" >;</text>
<text x="166" y="145" fill="red" >4</text>
<line x1="200" y1="200" x2="300" y2="200" stroke="black" />
<text x="252" y="195" fill="red" >6</text>
<text x="261" y="195" fill="red" >;</text>
<text x="266" y="195" fill="red" >4</text>
<line x1="400" y1="100" x2="300" y2="200" stroke="black" />
<text x="352" y="145" fill="red" >7</text>
<text x="361" y="145" fill="red" >;</text>
<text x="366" y="145" fill="red" >2</text>
<line x1="400" y1="100" x2="400" y2="400" stroke="black" />
<text x="402" y="245" fill="red" >6</text>
<text x="411" y="245" fill="red" >;</text>
<text x="416" y="245" fill="red" >3</text>
<line x1="200" y1="200" x2="200" y2="300" stroke="black" />
<text x="202" y="245" fill="red" >9</text>
<text x="211" y="245" fill="red" >;</text>
<text x="216" y="245" fill="red" >7</text>
<line x1="300" y1="200" x2="300" y2="300" stroke="black" />
<text x="302" y="245" fill="red" >1</text>
<text x="311" y="245" fill="red" >;</text>
<text x="316" y="245" fill="red" >2</text>
<line x1="200" y1="300" x2="100" y2="400" stroke="black" />
<text x="152" y="345" fill="red" >2</text>
<text x="161" y="345" fill="red" >;</text>
<text x="166" y="345" fill="red" >7</text>
<line x1="200" y1="300" x2="300" y2="300" stroke="black" />
<text x="252" y="295" fill="red" >5</text>
<text x="261" y="295" fill="red" >;</text>
<text x="266" y="295" fill="red" >9</text>
<line x1="300" y1="300" x2="400" y2="400" stroke="black" />
<text x="352" y="345" fill="red" >3</text>
<text x="361" y="345" fill="red" >;</text>
<text x="366" y="345" fill="red" >4</text>
<line x1="100" y1="400" x2="400" y2="400" stroke="black" />
<text x="252" y="395" fill="red" >4</text>
<text x="261" y="395" fill="red" >;</text>
<text x="266" y="395" fill="red" >4</text>
<line x1="545" y1="70" x2="555" y2="70" stroke="grey" />
<line x1="550" y1="65" x2="550" y2="75" stroke="grey" />
<line x1="545" y1="100" x2="555" y2="100" stroke="grey" />
<line x1="550" y1="95" x2="550" y2="105" stroke="grey" />
<line x1="545" y1="130" x2="555" y2="130" stroke="grey" />
<line x1="550" y1="125" x2="550" y2="135" stroke="grey" />
<line x1="545" y1="160" x2="555" y2="160" stroke="grey" />
<line x1="550" y1="155" x2="550" y2="165" stroke="grey" />
<line x1="545" y1="190" x2="555" y2="190" stroke="grey" />
<line x1="550" y1="185" x2="550" y2="195" stroke="grey" />
<line x1="545" y1="220" x2="555" y2="220" stroke="grey" />
<line x1="550" y1="215" x2="550" y2="225" stroke="grey" />
<line x1="545" y1="250" x2="555" y2="250" stroke="grey" />
<line x1="550" y1="245" x2="550" y2="255" stroke="grey" />
<line x1="545" y1="280" x2="555" y2="280" stroke="grey" />
<line x1="550" y1="275" x2="550" y2="285" stroke="grey" />
<line x1="545" y1="310" x2="555" y2="310" stroke="grey" />
<line x1="550" y1="305" x2="550" y2="315" stroke="grey" />
<line x1="545" y1="340" x2="555" y2="340" stroke="grey" />
<line x1="550" y1="335" x2="550" y2="345" stroke="grey" />
<line x1="545" y1="370" x2="555" y2="370" stroke="grey" />
<line x1="550" y1="365" x2="550" y2="375" stroke="grey" />
<line x1="545" y1="400" x2="555" y2="400" stroke="grey" />
<line x1="550" y1="395" x2="550" y2="405" stroke="grey" />
<line x1="575" y1="70" x2="585" y2="70" stroke="grey" />
<line x1="580" y1="65" x2="580" y2="75" stroke="grey" />
<line x1="575" y1="100" x2="585" y2="100" stroke="grey" />
<line x1="580" y1="95" x2="580" y2="105" stroke="grey" />
<line x1="575" y1="130" x2="585" y2="130" stroke="grey" />
<line x1="580" y1="125" x2="580" y2="135" stroke="grey" />
<line x1="575" y1="160" x2="585" y2="160" stroke="grey" />
<line x1="580" y1="155" x2="580" y2="165" stroke="grey" />
<line x1="575" y1="190" x2="585" y2="190" stroke="grey" />
<line x1="580" y1="185" x2="580" y2="195" stroke="grey" />
<line x1="575" y1="220" x2="585" y2="220" stroke="grey" />
<line x1="580" y1="215" x2="580" y2="225" stroke="grey" />
<line x1="575" y1="250" x2="585" y2="250" stroke="grey" />
<line x1="580" y1="245" x2="580" y2="255" stroke="grey" />
<line x1="575" y1="280" x2="585" y2="280" stroke="grey" />
<line x1="580" y1="275" x2="580" y2="285" stroke="grey" />
<line x1="575" y1="310" x2="585" y2="310" stroke="grey" />
<line x1="580" y1="305" x2="580" y2="315" stroke="grey" />
<line x1="575" y1="340" x2="585" y2="340" stroke="grey" />
<line x1="580" y1="335" x2="580" y2="345" stroke="grey" />
<line x1="575" y1="370" x2="585" y2="370" stroke="grey" />
<line x1="580" y1="365" x2="580" y2="375" stroke="grey" />
<line x1="575" y1="400" x2="585" y2="400" stroke="grey" />
<line x1="580" y1="395" x2="580" y2="405" stroke="grey" />
<line x1="605" y1="70" x2="615" y2="70" stroke="grey" />
<line x1="610" y1="65" x2="610" y2="75" stroke="grey" />
<line x1="605" y1="100" x2="615" y2="100" stroke="grey" />
<line x1="610" y1="95" x2="610" y2="105" stroke="grey" />
<line x1="605" y1="130" x2="615" y2="130" stroke="grey" />
<line x1="610" y1="125" x2="610" y2="135" stroke="grey" />
<line x1="605" y1="160" x2="615" y2="160" stroke="grey" />
<line x1="610" y1="155" x2="610" y2="165" stroke="grey" />
<line x1="605" y1="190" x2="615" y2="190" stroke="grey" />
<line x1="610" y1="185" x2="610" y2="195" stroke="grey" />
<line x1="605" y1="220" x2="615" y2="220" stroke="grey" />
<line x1="610" y1="215" x2="610" y2="225" stroke="grey" />
<line x1="605" y1="250" x2="615" y2="250" stroke="grey" />
<line x1="610" y1="245" x2="610" y2="255" stroke="grey" />
<line x1="605" y1="280" x2="615" y2="280" stroke="grey" />
<line x1="610" y1="275" x2="610" y2="285" stroke="grey" />
<line x1="605" y1="310" x2="615" y2="310" stroke="grey" />
<line x1="610" y1="305" x2="610" y2="315" stroke="grey" />
<line x1="605" y1="340" x2="615" y2="340" stroke="grey" />
<line x1="610" y1="335" x2="610" y2="345" stroke="grey" />
<line x1="605" y1="370" x2="615" y2="370" stroke="grey" />
<line x1="610" y1="365" x2="610" y2="375" stroke="grey" />
<line x1="605" y1="400" x2="615" y2="400" stroke="grey" />
<line x1="610" y1="395" x2="610" y2="405" stroke="grey" />
<line x1="635" y1="70" x2="645" y2="70" stroke="grey" />
<line x1="640" y1="65" x2="640" y2="75" stroke="grey" />
<line x1="635" y1="100" x2="645" y2="100" stroke="grey" />
<line x1="640" y1="95" x2="640" y2="105" stroke="grey" />
<line x1="635" y1="130" x2="645" y2="130" stroke="grey" />
<line x1="640" y1="125" x2="640" y2="135" stroke="grey" />
<line x1="635" y1="160" x2="645" y2="160" stroke="grey" />
<line x1="640" y1="155" x2="640" y2="165" stroke="grey" />
<line x1="635" y1="190" x2="645" y2="190" stroke="grey" />
<line x1="640" y1="185" x2="640" y2="195" stroke="grey" />
<line x1="635" y1="220" x2="645" y2="220" stroke="grey" />
<line x1="640" y1="215" x2="640" y2="225" stroke="grey" />
<line x1="635" y1="250" x2="645" y2="250" stroke="grey" />
<line x1="640" y1="245" x2="640" y2="255" stroke="grey" />
<line x1="635" y1="280" x2="645" y2="280" stroke="grey" />
<line x1="640" y1="275" x2="640" y2="285" stroke="grey" />
<line x1="635" y1="310" x2="645" y2="310" stroke="grey" />
<line x1="640" y1="305" x2="640" y2="315" stroke="grey" />
<line x1="635" y1="340" x2="645" y2="340" stroke="grey" />
<line x1="640" y1="335" x2="640" y2="345" stroke="grey" />
<line x1="635" y1="370" x2="645" y2="370" stroke="grey" />
<line x1="640" y1="365" x2="640" y2="375" stroke="grey" />
<line x1="635" y1="400" x2="645" y2="400" stroke="grey" />
<line x1="640" y1="395" x2="640" y2="405" stroke="grey" />
<line x1="665" y1="70" x2="675" y2="70" stroke="grey" />
<line x1="670" y1="65" x2="670" y2="75" stroke="grey" />
<line x1="665" y1="100" x2="675" y2="100" stroke="grey" />
<line x1="670" y1="95" x2="670" y2="105" stroke="grey" />
<line x1="665" y1="130" x2="675" y2="130" stroke="grey" />
<line x1="670" y1="125" x2="670" y2="135" stroke="grey" />
<line x1="665" y1="160" x2="675" y2="160" stroke="grey" />
<line x1="670" y1="155" x2="670" y2="165" stroke="grey" />
<line x1="665" y1="190" x2="675" y2="190" stroke="grey" />
<line x1="670" y1="185" x2="670" y2="195" stroke="grey" />
<line x1="665" y1="220" x2="675" y2="220" stroke="grey" />
<line x1="670" y1="215" x2="670" y2="225" stroke="grey" />
<line x1="665" y1="250" x2="675" y2="250" stroke="grey" />
<line x1="670" y1="245" x2="670" y2="255" stroke="grey" />
<line x1="665" y1="280" x2="675" y2="280" stroke="grey" />
<line x1="670" y1="275" x2="670" y2="285" stroke="grey" />
<line x1="665" y1="310" x2="675" y2="310" stroke="grey" />
<line x1="670" y1="305" x2="670" y2="315" stroke="grey" />
<line x1="665" y1="340" x2="675" y2="340" stroke="grey" />
<line x1="670" y1="335" x2="670" y2="345" stroke="grey" />
<line x1="665" y1="370" x2="675" y2="370" stroke="grey" />
<line x1="670" y1="365" x2="670" y2="375" stroke="grey" />
<line x1="665" y1="400" x2="675" y2="400" stroke="grey" />
<line x1="670" y1="395" x2="670" y2="405" stroke="grey" />
<line x1="695" y1="70" x2="705" y2="70" stroke="grey" />
<line x1="700" y1="65" x2="700" y2="75" stroke="grey" />
<line x1="695" y1="100" x2="705" y2="100" stroke="grey" />
<line x1="700" y1="95" x2="700" y2="105" stroke="grey" />
<line x1="695" y1="130" x2="705" y2="130" stroke="grey" />
<line x1="700" y1="125" x2="700" y2="135" stroke="grey" />
<line x1="695" y1="160" x2="705" y2="160" stroke="grey" />
<line x1="700" y1="155" x2="700" y2="165" stroke="grey" />
<line x1="695" y1="190" x2="705" y2="190" stroke="grey" />
<line x1="700" y1="185" x2="700" y2="195" stroke="grey" />
<line x1="695" y1="220" x2="705" y2="220" stroke="grey" />
<line x1="700" y1="215" x2="700" y2="225" stroke="grey" />
<line x1="695" y1="250" x2="705" y2="250" stroke="grey" />
<line x1="700" y1="245" x2="700" y2="255" stroke="grey" />
<line x1="695" y1="280" x2="705" y2="280" stroke="grey" />
<line x1="700" y1="275" x2="700" y2="285" stroke="grey" />
<line x1="695" y1="310" x2="705" y2="310" stroke="grey" />
<line x1="700" y1="305" x2="700" y2="315" stroke="grey" />
<line x1="695" y1="340" x2="705" y2="340" stroke="grey" />
<line x1="700" y1="335" x2="700" y2="345" stroke="grey" />
<line x1="695" y1="370" x2="705" y2="370" stroke="grey" />
<line x1="700" y1="365" x2="700" y2="375" stroke="grey" />
<line x1="695" y1="400" x2="705" y2="400" stroke="grey" />
<line x1="700" y1="395" x2="700" y2="405" stroke="grey" />
<line x1="725" y1="70" x2="735" y2="70" stroke="grey" />
<line x1="730" y1="65" x2="730" y2="75" stroke="grey" />
<line x1="725" y1="100" x2="735" y2="100" stroke="grey" />
<line x1="730" y1="95" x2="730" y2="105" stroke="grey" />
<line x1="725" y1="130" x2="735" y2="130" stroke="grey" />
<line x1="730" y1="125" x2="730" y2="135" stroke="grey" />
<line x1="725" y1="160" x2="735" y2="160" stroke="grey" />
<line x1="730" y1="155" x2="730" y2="165" stroke="grey" />
<line x1="725" y1="190" x2="735" y2="190" stroke="grey" />
<line x1="730" y1="185" x2="730" y2="195" stroke="grey" />
<line x1="725" y1="220" x2="735" y2="220" stroke="grey" />
<line x1="730" y1="215" x2="730" y2="225" stroke="grey" />
<line x1="725" y1="250" x2="735" y2="250" stroke="grey" />
<line x1="730" y1="245" x2="730" y2="255" stroke="grey" />
<line x1="725" y1="280" x2="735" y2="280" stroke="grey" />
<line x1="730" y1="275" x2="730" y2="285" stroke="grey" />
<line x1="725" y1="310" x2="735" y2="310" stroke="grey" />
<line x1="730" y1="305" x2="730" y2="315" stroke="grey" />
<line x1="725" y1="340" x2="735" y2="340" stroke="grey" />
<line x1="730" y1="335" x2="730" y2="345" stroke="grey" />
<line x1="725" y1="370" x2="735" y2="370" stroke="grey" />
<line x1="730" y1="365" x2="730" y2="375" stroke="grey" />
<line x1="725" y1="400" x2="735" y2="400" stroke="grey" />
<line x1="730" y1="395" x2="730" y2="405" stroke="grey" />
<line x1="755" y1="70" x2="765" y2="70" stroke="grey" />
<line x1="760" y1="65" x2="760" y2="75" stroke="grey" />
<line x1="755" y1="100" x2="765" y2="100" stroke="grey" />
<line x1="760" y1="95" x2="760" y2="105" stroke="grey" />
<line x1="755" y1="130" x2="765" y2="130" stroke="grey" />
<line x1="760" y1="125" x2="760" y2="135" stroke="grey" />
<line x1="755" y1="160" x2="765" y2="160" stroke="grey" />
<line x1="760" y1="155" x2="760" y2="165" stroke="grey" />
<line x1="755" y1="190" x2="765" y2="190" stroke="grey" />
<line x1="760" y1="185" x2="760" y2="195" stroke="grey" />
<line x1="755" y1="220" x2="765" y2="220" stroke="grey" />
<line x1="760" y1="215" x2="760" y2="225" stroke="grey" />
<line x1="755" y1="250" x2="765" y2="250" stroke="grey" />
<line x1="760" y1="245" x2="760" y2="255" stroke="grey" />
<line x1="755" y1="280" x2="765" y2="280" stroke="grey" />
<line x1="760" y1="275" x2="760" y2="285" stroke="grey" />
<line x1="755" y1="310" x2="765" y2="310" stroke="grey" />
<line x1="760" y1="305" x2="760" y2="315" stroke="grey" />
<line x1="755" y1="340" x2="765" y2="340" stroke="grey" />
<line x1="760" y1="335" x2="760" y2="345" stroke="grey" />
<line x1="755" y1="370" x2="765" y2="370" stroke="grey" />
<line x1="760" y1="365" x2="760" y2="375" stroke="grey" />
<line x1="755" y1="400" x2="765" y2="400" stroke="grey" />
<line x1="760" y1="395" x2="760" y2="405" stroke="grey" />
<line x1="785" y1="70" x2="795" y2="70" stroke="grey" />
<line x1="790" y1="65" x2="790" y2="75" stroke="grey" />
<line x1="785" y1="100" x2="795" y2="100" stroke="grey" />
<line x1="790" y1="95" x2="790" y2="105" stroke="grey" />
<line x1="785" y1="130" x2="795" y2="130" stroke="grey" />
<line x1="790" y1="125" x2="790" y2="135" stroke="grey" />
<line x1="785" y1="160" x2="795" y2="160" stroke="grey" />
<line x1="790" y1="155" x2="790" y2="165" stroke="grey" />
<line x1="785" y1="190" x2="795" y2="190" stroke="grey" />
<line x1="790" y1="185" x2="790" y2="195" stroke="grey" />
<line x1="785" y1="220" x2="795" y2="220" stroke="grey" />
<line x1="790" y1="215" x2="790" y2="225" stroke="grey" />
<line x1="785" y1="250" x2="795" y2="250" stroke="grey" />
<line x1="790" y1="245" x2="790" y2="255" stroke="grey" />
<line x1="785" y1="280" x2="795" y2="280" stroke="grey" />
<line x1="790" y1="275" x2="790" y2="285" stroke="grey" />
<line x1="785" y1="310" x2="795" y2="310" stroke="grey" />
<line x1="790" y1="305" x2="790" y2="315" stroke="grey" />
<line x1="785" y1="340" x2="795" y2="340" stroke="grey" />
<line x1="790" y1="335" x2="790" y2="345" stroke="grey" />
<line x1="785" y1="370" x2="795" y2="370" stroke="grey" />
<line x1="790" y1="365" x2="790" y2="375" stroke="grey" />
<line x1="785" y1="400" x2="795" y2="400" stroke="grey" />
<line x1="790" y1="395" x2="790" y2="405" stroke="grey" />
<line x1="815" y1="70" x2="825" y2="70" stroke="grey" />
<line x1="820" y1="65" x2="820" y2="75" stroke="grey" />
<line x1="815" y1="100" x2="825" y2="100" stroke="grey" />
<line x1="820" y1="95" x2="820" y2="105" stroke="grey" />
<line x1="815" y1="130" x2="825" y2="130" stroke="grey" />
<line x1="820" y1="125" x2="820" y2="135" stroke="grey" />
<line x1="815" y1="160" x2="825" y2="160" stroke="grey" />
<line x1="820" y1="155" x2="820" y2="165" stroke="grey" />
<line x1="815" y1="190" x2="825" y2="190" stroke="grey" />
<line x1="820" y1="185" x2="820" y2="195" stroke="grey" />
<line x1="815" y1="220" x2="825" y2="220" stroke="grey" />
<line x1="820" y1="215" x2="820" y2="225" stroke="grey" />
<line x1="815" y1="250" x2="825" y2="250" stroke="grey" />
<line x1="820" y1="245" x2="820" y2="255" stroke="grey" />
<line x1="815" y1="280" x2="825" y2="280" stroke="grey" />
<line x1="820" y1="275" x2="820" y2="285" stroke="grey" />
<line x1="815" y1="310" x2="825" y2="310" stroke="grey" />
<line x1="820" y1="305" x2="820" y2="315" stroke="grey" />
<line x1="815" y1="340" x2="825" y2="340" stroke="grey" />
<line x1="820" y1="335" x2="820" y2="345" stroke="grey" />
<line x1="815" y1="370" x2="825" y2="370" stroke="grey" />
<line x1="820" y1="365" x2="820" y2="375" stroke="grey" />
<line x1="815" y1="400" x2="825" y2="400" stroke="grey" />
<line x1="820" y1="395" x2="820" y2="405" stroke="grey" />
<line x1="845" y1="70" x2="855" y2="70" stroke="grey" />
<line x1="850" y1="65" x2="850" y2="75" stroke="grey" />
<line x1="845" y1="100" x2="855" y2="100" stroke="grey" />
<line x1="850" y1="95" x2="850" y2="105" stroke="grey" />
<line x1="845" y1="130" x2="855" y2="130" stroke="grey" />
<line x1="850" y1="125" x2="850" y2="135" stroke="grey" />
<line x1="845" y1="160" x2="855" y2="160" stroke="grey" />
<line x1="850" y1="155" x2="850" y2="165" stroke="grey" />
<line x1="845" y1="190" x2="855" y2="190" stroke="grey" />
<line x1="850" y1="185" x2="850" y2="195" stroke="grey" />
<line x1="845" y1="220" x2="855" y2="220" stroke="grey" />
<line x1="850" y1="215" x2="850" y2="225" stroke="grey" />
<line x1="845" y1="250" x2="855" y2="250" stroke="grey" />
<line x1="850" y1="245" x2="850" y2="255" stroke="grey" />
<line x1="845" y1="280" x2="855" y2="280" stroke="grey" />
<line x1="850" y1="275" x2="850" y2="285" stroke="grey" />
<line x1="845" y1="310" x2="855" y2="310" stroke="grey" />
<line x1="850" y1="305" x2="850" y2="315" stroke="grey" />
<line x1="845" y1="340" x2="855" y2="340" stroke="grey" />
<line x1="850" y1="335" x2="850" y2="345" stroke="grey" />
<line x1="845" y1="370" x2="855" y2="370" stroke="grey" />
<line x1="850" y1="365" x2="850" y2="375" stroke="grey" />
<line x1="845" y1="400" x2="855" y2="400" stroke="grey" />
<line x1="850" y1="395" x2="850" y2="405" stroke="grey" />
<line x1="875" y1="70" x2="885" y2="70" stroke="grey" />
<line x1="880" y1="65" x2="880" y2="75" stroke="grey" />
<line x1="875" y1="100" x2="885" y2="100" stroke="grey" />
<line x1="880" y1="95" x2="880" y2="105" stroke="grey" />
<line x1="875" y1="130" x2="885" y2="130" stroke="grey" />
<line x1="880" y1="125" x2="880" y2="135" stroke="grey" />
<line x1="875" y1="160" x2="885" y2="160" stroke="grey" />
<line x1="880" y1="155" x2="880" y2="165" stroke="grey" />
<line x1="875" y1="190" x2="885" y2="190" stroke="grey" />
<line x1="880" y1="185" x2="880" y2="195" stroke="grey" />
<line x1="875" y1="220" x2="885" y2="220" stroke="grey" />
<line x1="880" y1="215" x2="880" y2="225" stroke="grey" />
<line x1="875" y1="250" x2="885" y2="250" stroke="grey" />
<line x1="880" y1="245" x2="880" y2="255" stroke="grey" />
<line x1="875" y1="280" x2="885" y2="280" stroke="grey" />
<line x1="880" y1="275" x2="880" y2="285" stroke="grey" />
<line x1="875" y1="310" x2="885" y2="310" stroke="grey" />
<line x1="880" y1="305" x2="880" y2="315" stroke="grey" />
<line x1="875" y1="340" x2="885" y2="340" stroke="grey" />
<line x1="880" y1="335" x2="880" y2="345" stroke="grey" />
<line x1="875" y1="370" x2="885" y2="370" stroke="grey" />
<line x1="880" y1="365" x2="880" y2="375" stroke="grey" />
<line x1="875" y1="400" x2="885" y2="400" stroke="grey" />
<line x1="880" y1="395" x2="880" y2="405" stroke="grey" />
<line x1="550" y1="400" x2="550" y2="50" stroke="black" />
<line x1="550" y1="400" x2="900" y2="400" stroke="black" />
<line x1="550" y1="50" x2="545" y2="55" stroke="black" />
<line x1="550" y1="50" x2="555" y2="55" stroke="black" />
<line x1="900" y1="400" x2="895" y2="395" stroke="black" />
<line x1="900" y1="400" x2="895" y2="405" stroke="black" />
<line x1="550" y1="400" x2="550" y2="405" stroke="black" />
<text x="545" y="420" fill="black" >0</text>
<line x1="580" y1="400" x2="580" y2="405" stroke="black" />
<text x="575" y="420" fill="black" >10</text>
<line x1="610" y1="400" x2="610" y2="405" stroke="black" />
<text x="605" y="420" fill="black" >20</text>
<line x1="640" y1="400" x2="640" y2="405" stroke="black" />
<text x="635" y="420" fill="black" >30</text>
<line x1="670" y1="400" x2="670" y2="405" stroke="black" />
<text x="665" y="420" fill="black" >40</text>
<line x1="700" y1="400" x2="700" y2="405" stroke="black" />
<text x="695" y="420" fill="black" >50</text>
<line x1="730" y1="400" x2="730" y2="405" stroke="black" />
<text x="725" y="420" fill="black" >60</text>
<line x1="760" y1="400" x2="760" y2="405" stroke="black" />
<text x="755" y="420" fill="black" >70</text>
<line x1="790" y1="400" x2="790" y2="405" stroke="black" />
<text x="785" y="420" fill="black" >80</text>
<line x1="820" y1="400" x2="820" y2="405" stroke="black" />
<text x="815" y="420" fill="black" >90</text>
<line x1="850" y1="400" x2="850" y2="405" stroke="black" />
<text x="845" y="420" fill="black" >100</text>
<line x1="880" y1="400" x2="880" y2="405" stroke="black" />
<text x="875" y="420" fill="black" >110</text>
<line x1="545" y1="70" x2="550" y2="70" stroke="black" />
<text x="515" y="75" fill="black" >110</text>
<line x1="545" y1="100" x2="550" y2="100" stroke="black" />
<text x="515" y="105" fill="black" >100</text>
<line x1="545" y1="130" x2="550" y2="130" stroke="black" />
<text x="515" y="135" fill="black" >90</text>
<line x1="545" y1="160" x2="550" y2="160" stroke="black" />
<text x="515" y="165" fill="black" >80</text>
<line x1="545" y1="190" x2="550" y2="190" stroke="black" />
<text x="515" y="195" fill="black" >70</text>
<line x1="545" y1="220" x2="550" y2="220" stroke="black" />
<text x="515" y="225" fill="black" >60</text>
<line x1="545" y1="250" x2="550" y2="250" stroke="black" />
<text x="515" y="255" fill="black" >50</text>
<line x1="545" y1="280" x2="550" y2="280" stroke="black" />
<text x="515" y="285" fill="black" >40</text>
<line x1="545" y1="310" x2="550" y2="310" stroke="black" />
<text x="515" y="315" fill="black" >30</text>
<line x1="545" y1="340" x2="550" y2="340" stroke="black" />
<text x="515" y="345" fill="black" >20</text>
<line x1="545" y1="370" x2="550" y2="370" stroke="black" />
<text x="515" y="375" fill="black" >10</text>
<line x1="545" y1="400" x2="550" y2="400" stroke="black" />
<text x="515" y="405" fill="black" >0</text>
<text x="565" y="50" fill="black" >Cout 2</text>
<text x="915" y="405" fill="black" >Cout 1</text>
<circle cx="661" cy="301" r="1.25" fill="green" />
<circle cx="652" cy="307" r="1.25" fill="green" />
<circle cx="658" cy="292" r="1.25" fill="green" />
<circle cx="655" cy="292" r="1.25" fill="green" />
<circle cx="664" cy="304" r="1.25" fill="green" />
<circle cx="655" cy="310" r="1.25" fill="green" />
<circle cx="661" cy="295" r="1.25" fill="green" />
<circle cx="658" cy="295" r="1.25" fill="green" />
<circle cx="679" cy="301" r="1.25" fill="green" />
<circle cx="670" cy="307" r="1.25" fill="green" />
<circle cx="676" cy="292" r="1.25" fill="green" />
<circle cx="673" cy="292" r="1.25" fill="green" />
<circle cx="673" cy="307" r="1.25" fill="green" />
<circle cx="664" cy="313" r="1.25" fill="green" />
<circle cx="667" cy="298" r="1.25" fill="green" />
<circle cx="652" cy="310" r="1.25" fill="green" />
<circle cx="643" cy="316" r="1.25" fill="green" />
<circle cx="649" cy="301" r="1.25" fill="green" />
<circle cx="646" cy="301" r="1.25" fill="green" />
<circle cx="676" cy="295" r="1.25" fill="green" />
<circle cx="667" cy="301" r="1.25" fill="green" />
<circle cx="673" cy="286" r="1.25" fill="green" />
<circle cx="670" cy="286" r="1.25" fill="green" />
<circle cx="664" cy="316" r="1.25" fill="green" />
<circle cx="661" cy="307" r="1.25" fill="green" />
<circle cx="658" cy="307" r="1.25" fill="green" />
<circle cx="655" cy="313" r="1.25" fill="green" />
<circle cx="646" cy="319" r="1.25" fill="green" />
<circle cx="652" cy="304" r="1.25" fill="green" />
<circle cx="649" cy="304" r="1.25" fill="green" />
<circle cx="679" cy="298" r="1.25" fill="green" />
<circle cx="670" cy="304" r="1.25" fill="green" />
<circle cx="676" cy="289" r="1.25" fill="green" />
<circle cx="673" cy="289" r="1.25" fill="green" />
<circle cx="667" cy="319" r="1.25" fill="green" />
<circle cx="664" cy="310" r="1.25" fill="green" />
<circle cx="661" cy="310" r="1.25" fill="green" />
<circle cx="670" cy="310" r="1.25" fill="green" />
<circle cx="661" cy="316" r="1.25" fill="green" />
<circle cx="667" cy="301" r="1.25" fill="green" />
<circle cx="664" cy="301" r="1.25" fill="green" />
<circle cx="664" cy="316" r="1.25" fill="green" />
<circle cx="655" cy="322" r="1.25" fill="green" />
<circle cx="658" cy="307" r="1.25" fill="green" />
<circle cx="682" cy="316" r="1.25" fill="green" />
<circle cx="688" cy="301" r="1.25" fill="green" />
<circle cx="676" cy="307" r="1.25" fill="green" />
<circle cx="682" cy="292" r="1.25" fill="green" />
<circle cx="676" cy="322" r="1.25" fill="green" />
<circle cx="670" cy="313" r="1.25" fill="green" />
<circle cx="640" cy="304" r="1.25" fill="green" />
<circle cx="631" cy="310" r="1.25" fill="green" />
<circle cx="637" cy="295" r="1.25" fill="green" />
<circle cx="634" cy="295" r="1.25" fill="green" />
<circle cx="643" cy="307" r="1.25" fill="green" />
<circle cx="634" cy="313" r="1.25" fill="green" />
<circle cx="640" cy="298" r="1.25" fill="green" />
<circle cx="637" cy="298" r="1.25" fill="green" />
<circle cx="658" cy="304" r="1.25" fill="green" />
<circle cx="649" cy="310" r="1.25" fill="green" />
<circle cx="655" cy="295" r="1.25" fill="green" />
<circle cx="652" cy="295" r="1.25" fill="green" />
<circle cx="652" cy="310" r="1.25" fill="green" />
<circle cx="643" cy="316" r="1.25" fill="green" />
<circle cx="646" cy="301" r="1.25" fill="green" />
<circle cx="631" cy="313" r="1.25" fill="green" />
<circle cx="622" cy="319" r="1.25" fill="green" />
<circle cx="628" cy="304" r="1.25" fill="green" />
<circle cx="625" cy="304" r="1.25" fill="green" />
<circle cx="655" cy="298" r="1.25" fill="green" />
<circle cx="646" cy="304" r="1.25" fill="green" />
<circle cx="652" cy="289" r="1.25" fill="green" />
<circle cx="649" cy="289" r="1.25" fill="green" />
<circle cx="643" cy="319" r="1.25" fill="green" />
<circle cx="640" cy="310" r="1.25" fill="green" />
<circle cx="637" cy="310" r="1.25" fill="green" />
<circle cx="634" cy="316" r="1.25" fill="green" />
<circle cx="625" cy="322" r="1.25" fill="green" />
<circle cx="631" cy="307" r="1.25" fill="green" />
<circle cx="628" cy="307" r="1.25" fill="green" />
<circle cx="658" cy="301" r="1.25" fill="green" />
<circle cx="649" cy="307" r="1.25" fill="green" />
<circle cx="655" cy="292" r="1.25" fill="green" />
<circle cx="652" cy="292" r="1.25" fill="green" />
<circle cx="646" cy="322" r="1.25" fill="green" />
<circle cx="643" cy="313" r="1.25" fill="green" />
<circle cx="640" cy="313" r="1.25" fill="green" />
<circle cx="649" cy="313" r="1.25" fill="green" />
<circle cx="640" cy="319" r="1.25" fill="green" />
<circle cx="646" cy="304" r="1.25" fill="green" />
<circle cx="643" cy="304" r="1.25" fill="green" />
<circle cx="643" cy="319" r="1.25" fill="green" />
<circle cx="634" cy="325" r="1.25" fill="green" />
<circle cx="637" cy="310" r="1.25" fill="green" />
<circle cx="661" cy="319" r="1.25" fill="green" />
<circle cx="667" cy="304" r="1.25" fill="green" />
<circle cx="655" cy="310" r="1.25" fill="green" />
<circle cx="661" cy="295" r="1.25" fill="green" />
<circle cx="655" cy="325" r="1.25" fill="green" />
<circle cx="649" cy="316" r="1.25" fill="green" />
<circle cx="640" cy="313" r="1.25" fill="green" />
<circle cx="631" cy="319" r="1.25" fill="green" />
<circle cx="637" cy="304" r="1.25" fill="green" />
<circle cx="634" cy="304" r="1.25" fill="green" />
<circle cx="652" cy="319" r="1.25" fill="green" />
<circle cx="658" cy="304" r="1.25" fill="green" />
<circle cx="655" cy="304" r="1.25" fill="green" />
<circle cx="643" cy="316" r="1.25" fill="green" />
<circle cx="634" cy="322" r="1.25" fill="green" />
<circle cx="640" cy="307" r="1.25" fill="green" />
<circle cx="637" cy="307" r="1.25" fill="green" />
<circle cx="655" cy="322" r="1.25" fill="green" />
<circle cx="661" cy="307" r="1.25" fill="green" />
<circle cx="658" cy="307" r="1.25" fill="green" />
<circle cx="658" cy="313" r="1.25" fill="green" />
<circle cx="649" cy="319" r="1.25" fill="green" />
<circle cx="655" cy="304" r="1.25" fill="green" />
<circle cx="652" cy="304" r="1.25" fill="green" />
<circle cx="652" cy="319" r="1.25" fill="green" />
<circle cx="643" cy="325" r="1.25" fill="green" />
<circle cx="646" cy="310" r="1.25" fill="green" />
<circle cx="670" cy="319" r="1.25" fill="green" />
<circle cx="676" cy="304" r="1.25" fill="green" />
<circle cx="673" cy="304" r="1.25" fill="green" />
<circle cx="664" cy="325" r="1.25" fill="green" />
<circle cx="667" cy="310" r="1.25" fill="green" />
<circle cx="655" cy="307" r="1.25" fill="green" />
<circle cx="646" cy="313" r="1.25" fill="green" />
<circle cx="652" cy="298" r="1.25" fill="green" />
<circle cx="649" cy="298" r="1.25" fill="green" />
<circle cx="649" cy="313" r="1.25" fill="green" />
<circle cx="646" cy="313" r="1.25" fill="green" />
<circle cx="640" cy="319" r="1.25" fill="green" />
<circle cx="637" cy="319" r="1.25" fill="green" />
<circle cx="667" cy="313" r="1.25" fill="green" />
<circle cx="673" cy="298" r="1.25" fill="green" />
<circle cx="670" cy="298" r="1.25" fill="green" />
<circle cx="661" cy="319" r="1.25" fill="green" />
<circle cx="658" cy="319" r="1.25" fill="green" />
<circle cx="658" cy="310" r="1.25" fill="green" />
<circle cx="649" cy="316" r="1.25" fill="green" />
<circle cx="655" cy="301" r="1.25" fill="green" />
<circle cx="652" cy="301" r="1.25" fill="green" />
<circle cx="652" cy="316" r="1.25" fill="green" />
<circle cx="649" cy="316" r="1.25" fill="green" />
<circle cx="643" cy="322" r="1.25" fill="green" />
<circle cx="640" cy="322" r="1.25" fill="green" />
<circle cx="670" cy="316" r="1.25" fill="green" />
<circle cx="676" cy="301" r="1.25" fill="green" />
<circle cx="673" cy="301" r="1.25" fill="green" />
<circle cx="664" cy="322" r="1.25" fill="green" />
<circle cx="661" cy="322" r="1.25" fill="green" />
<circle cx="664" cy="313" r="1.25" fill="green" />
<circle cx="655" cy="319" r="1.25" fill="green" />
<circle cx="661" cy="304" r="1.25" fill="green" />
<circle cx="658" cy="319" r="1.25" fill="green" />
<circle cx="649" cy="325" r="1.25" fill="green" />
<circle cx="676" cy="319" r="1.25" fill="green" />
<circle cx="682" cy="304" r="1.25" fill="green" />
<circle cx="670" cy="325" r="1.25" fill="green" />
<circle cx="649" cy="298" r="1.25" fill="green" />
<circle cx="640" cy="304" r="1.25" fill="green" />
<circle cx="646" cy="289" r="1.25" fill="green" />
<circle cx="643" cy="289" r="1.25" fill="green" />
<circle cx="652" cy="301" r="1.25" fill="green" />
<circle cx="643" cy="307" r="1.25" fill="green" />
<circle cx="649" cy="292" r="1.25" fill="green" />
<circle cx="646" cy="292" r="1.25" fill="green" />
<circle cx="667" cy="298" r="1.25" fill="green" />
<circle cx="658" cy="304" r="1.25" fill="green" />
<circle cx="664" cy="289" r="1.25" fill="green" />
<circle cx="661" cy="289" r="1.25" fill="green" />
<circle cx="661" cy="304" r="1.25" fill="green" />
<circle cx="652" cy="310" r="1.25" fill="green" />
<circle cx="655" cy="295" r="1.25" fill="green" />
<circle cx="640" cy="307" r="1.25" fill="green" />
<circle cx="631" cy="313" r="1.25" fill="green" />
<circle cx="637" cy="298" r="1.25" fill="green" />
<circle cx="634" cy="298" r="1.25" fill="green" />
<circle cx="664" cy="292" r="1.25" fill="green" />
<circle cx="655" cy="298" r="1.25" fill="green" />
<circle cx="661" cy="283" r="1.25" fill="green" />
<circle cx="658" cy="283" r="1.25" fill="green" />
<circle cx="652" cy="313" r="1.25" fill="green" />
<circle cx="649" cy="304" r="1.25" fill="green" />
<circle cx="646" cy="304" r="1.25" fill="green" />
<circle cx="643" cy="310" r="1.25" fill="green" />
<circle cx="634" cy="316" r="1.25" fill="green" />
<circle cx="640" cy="301" r="1.25" fill="green" />
<circle cx="637" cy="301" r="1.25" fill="green" />
<circle cx="667" cy="295" r="1.25" fill="green" />
<circle cx="658" cy="301" r="1.25" fill="green" />
<circle cx="664" cy="286" r="1.25" fill="green" />
<circle cx="661" cy="286" r="1.25" fill="green" />
<circle cx="655" cy="316" r="1.25" fill="green" />
<circle cx="652" cy="307" r="1.25" fill="green" />
<circle cx="649" cy="307" r="1.25" fill="green" />
<circle cx="658" cy="307" r="1.25" fill="green" />
<circle cx="649" cy="313" r="1.25" fill="green" />
<circle cx="655" cy="298" r="1.25" fill="green" />
<circle cx="652" cy="298" r="1.25" fill="green" />
<circle cx="652" cy="313" r="1.25" fill="green" />
<circle cx="643" cy="319" r="1.25" fill="green" />
<circle cx="646" cy="304" r="1.25" fill="green" />
<circle cx="670" cy="313" r="1.25" fill="green" />
<circle cx="676" cy="298" r="1.25" fill="green" />
<circle cx="664" cy="304" r="1.25" fill="green" />
<circle cx="670" cy="289" r="1.25" fill="green" />
<circle cx="664" cy="319" r="1.25" fill="green" />
<circle cx="658" cy="310" r="1.25" fill="green" />
<circle cx="658" cy="295" r="1.25" fill="green" />
<circle cx="649" cy="301" r="1.25" fill="green" />
<circle cx="655" cy="286" r="1.25" fill="green" />
<circle cx="652" cy="286" r="1.25" fill="green" />
<circle cx="649" cy="307" r="1.25" fill="green" />
<circle cx="640" cy="313" r="1.25" fill="green" />
<circle cx="646" cy="298" r="1.25" fill="green" />
<circle cx="643" cy="298" r="1.25" fill="green" />
<circle cx="661" cy="313" r="1.25" fill="green" />
<circle cx="667" cy="298" r="1.25" fill="green" />
<circle cx="655" cy="304" r="1.25" fill="green" />
<circle cx="661" cy="289" r="1.25" fill="green" />
<circle cx="652" cy="310" r="1.25" fill="green" />
<circle cx="643" cy="316" r="1.25" fill="green" />
<circle cx="649" cy="301" r="1.25" fill="green" />
<circle cx="646" cy="301" r="1.25" fill="green" />
<circle cx="676" cy="295" r="1.25" fill="green" />
<circle cx="667" cy="301" r="1.25" fill="green" />
<circle cx="673" cy="286" r="1.25" fill="green" />
<circle cx="670" cy="286" r="1.25" fill="green" />
<circle cx="664" cy="316" r="1.25" fill="green" />
<circle cx="661" cy="307" r="1.25" fill="green" />
<circle cx="658" cy="307" r="1.25" fill="green" />
<circle cx="667" cy="307" r="1.25" fill="green" />
<circle cx="658" cy="313" r="1.25" fill="green" />
<circle cx="664" cy="298" r="1.25" fill="green" />
<circle cx="661" cy="298" r="1.25" fill="green" />
<circle cx="661" cy="313" r="1.25" fill="green" />
<circle cx="652" cy="319" r="1.25" fill="green" />
<circle cx="655" cy="304" r="1.25" fill="green" />
<circle cx="679" cy="313" r="1.25" fill="green" />
<circle cx="685" cy="298" r="1.25" fill="green" />
<circle cx="673" cy="304" r="1.25" fill="green" />
<circle cx="679" cy="289" r="1.25" fill="green" />
<circle cx="673" cy="319" r="1.25" fill="green" />
<circle cx="667" cy="310" r="1.25" fill="green" />
<circle cx="649" cy="304" r="1.25" fill="green" />
<circle cx="640" cy="310" r="1.25" fill="green" />
<circle cx="646" cy="295" r="1.25" fill="green" />
<circle cx="643" cy="295" r="1.25" fill="green" />
<circle cx="673" cy="289" r="1.25" fill="green" />
<circle cx="664" cy="295" r="1.25" fill="green" />
<circle cx="670" cy="280" r="1.25" fill="green" />
<circle cx="667" cy="280" r="1.25" fill="green" />
<circle cx="661" cy="310" r="1.25" fill="green" />
<circle cx="658" cy="301" r="1.25" fill="green" />
<circle cx="655" cy="301" r="1.25" fill="green" />
<circle cx="664" cy="301" r="1.25" fill="green" />
<circle cx="655" cy="307" r="1.25" fill="green" />
<circle cx="661" cy="292" r="1.25" fill="green" />
<circle cx="658" cy="292" r="1.25" fill="green" />
<circle cx="658" cy="307" r="1.25" fill="green" />
<circle cx="649" cy="313" r="1.25" fill="green" />
<circle cx="652" cy="298" r="1.25" fill="green" />
<circle cx="676" cy="307" r="1.25" fill="green" />
<circle cx="682" cy="292" r="1.25" fill="green" />
<circle cx="670" cy="298" r="1.25" fill="green" />
<circle cx="676" cy="283" r="1.25" fill="green" />
<circle cx="670" cy="313" r="1.25" fill="green" />
<circle cx="664" cy="304" r="1.25" fill="green" />
<circle cx="637" cy="298" r="1.25" fill="green" />
<circle cx="628" cy="304" r="1.25" fill="green" />
<circle cx="634" cy="289" r="1.25" fill="green" />
<circle cx="631" cy="289" r="1.25" fill="green" />
<circle cx="643" cy="301" r="1.25" fill="green" />
<circle cx="634" cy="307" r="1.25" fill="green" />
<circle cx="640" cy="292" r="1.25" fill="green" />
<circle cx="655" cy="298" r="1.25" fill="green" />
<circle cx="646" cy="304" r="1.25" fill="green" />
<circle cx="652" cy="289" r="1.25" fill="green" />
<circle cx="649" cy="289" r="1.25" fill="green" />
<circle cx="649" cy="304" r="1.25" fill="green" />
<circle cx="646" cy="304" r="1.25" fill="green" />
<circle cx="640" cy="310" r="1.25" fill="green" />
<circle cx="637" cy="310" r="1.25" fill="green" />
<circle cx="661" cy="301" r="1.25" fill="green" />
<circle cx="652" cy="307" r="1.25" fill="green" />
<circle cx="658" cy="292" r="1.25" fill="green" />
<circle cx="655" cy="307" r="1.25" fill="green" />
<circle cx="646" cy="313" r="1.25" fill="green" />
<circle cx="628" cy="307" r="1.25" fill="green" />
<circle cx="619" cy="313" r="1.25" fill="green" />
<circle cx="625" cy="298" r="1.25" fill="green" />
<circle cx="622" cy="298" r="1.25" fill="green" />
<circle cx="652" cy="292" r="1.25" fill="green" />
<circle cx="643" cy="298" r="1.25" fill="green" />
<circle cx="649" cy="283" r="1.25" fill="green" />
<circle cx="646" cy="283" r="1.25" fill="green" />
<circle cx="640" cy="313" r="1.25" fill="green" />
<circle cx="637" cy="304" r="1.25" fill="green" />
<circle cx="634" cy="304" r="1.25" fill="green" />
<circle cx="634" cy="310" r="1.25" fill="green" />
<circle cx="625" cy="316" r="1.25" fill="green" />
<circle cx="631" cy="301" r="1.25" fill="green" />
<circle cx="658" cy="295" r="1.25" fill="green" />
<circle cx="649" cy="301" r="1.25" fill="green" />
<circle cx="655" cy="286" r="1.25" fill="green" />
<circle cx="646" cy="316" r="1.25" fill="green" />
<circle cx="643" cy="307" r="1.25" fill="green" />
<circle cx="646" cy="307" r="1.25" fill="green" />
<circle cx="637" cy="313" r="1.25" fill="green" />
<circle cx="643" cy="298" r="1.25" fill="green" />
<circle cx="640" cy="298" r="1.25" fill="green" />
<circle cx="640" cy="313" r="1.25" fill="green" />
<circle cx="637" cy="313" r="1.25" fill="green" />
<circle cx="631" cy="319" r="1.25" fill="green" />
<circle cx="628" cy="319" r="1.25" fill="green" />
<circle cx="658" cy="313" r="1.25" fill="green" />
<circle cx="664" cy="298" r="1.25" fill="green" />
<circle cx="661" cy="298" r="1.25" fill="green" />
<circle cx="652" cy="319" r="1.25" fill="green" />
<circle cx="649" cy="319" r="1.25" fill="green" />
<circle cx="652" cy="310" r="1.25" fill="green" />
<circle cx="643" cy="316" r="1.25" fill="green" />
<circle cx="649" cy="301" r="1.25" fill="green" />
<circle cx="646" cy="316" r="1.25" fill="green" />
<circle cx="637" cy="322" r="1.25" fill="green" />
<circle cx="664" cy="316" r="1.25" fill="green" />
<circle cx="670" cy="301" r="1.25" fill="green" />
<circle cx="658" cy="322" r="1.25" fill="green" />
<circle cx="637" cy="307" r="1.25" fill="green" />
<circle cx="628" cy="313" r="1.25" fill="green" />
<circle cx="634" cy="298" r="1.25" fill="green" />
<circle cx="631" cy="298" r="1.25" fill="green" />
<circle cx="649" cy="313" r="1.25" fill="green" />
<circle cx="655" cy="298" r="1.25" fill="green" />
<circle cx="652" cy="298" r="1.25" fill="green" />
<circle cx="643" cy="310" r="1.25" fill="green" />
<circle cx="634" cy="316" r="1.25" fill="green" />
<circle cx="640" cy="301" r="1.25" fill="green" />
<circle cx="655" cy="316" r="1.25" fill="green" />
<circle cx="661" cy="301" r="1.25" fill="green" />
<circle cx="655" cy="307" r="1.25" fill="green" />
<circle cx="646" cy="313" r="1.25" fill="green" />
<circle cx="652" cy="298" r="1.25" fill="green" />
<circle cx="649" cy="298" r="1.25" fill="green" />
<circle cx="649" cy="313" r="1.25" fill="green" />
<circle cx="646" cy="313" r="1.25" fill="green" />
<circle cx="640" cy="319" r="1.25" fill="green" />
<circle cx="637" cy="319" r="1.25" fill="green" />
<circle cx="667" cy="313" r="1.25" fill="green" />
<circle cx="673" cy="298" r="1.25" fill="green" />
<circle cx="670" cy="298" r="1.25" fill="green" />
<circle cx="661" cy="319" r="1.25" fill="green" />
<circle cx="658" cy="319" r="1.25" fill="green" />
<circle cx="661" cy="310" r="1.25" fill="green" />
<circle cx="652" cy="316" r="1.25" fill="green" />
<circle cx="658" cy="301" r="1.25" fill="green" />
<circle cx="655" cy="316" r="1.25" fill="green" />
<circle cx="646" cy="322" r="1.25" fill="green" />
<circle cx="673" cy="316" r="1.25" fill="green" />
<circle cx="679" cy="301" r="1.25" fill="green" />
<circle cx="667" cy="322" r="1.25" fill="green" />
<circle cx="652" cy="301" r="1.25" fill="green" />
<circle cx="643" cy="307" r="1.25" fill="green" />
<circle cx="649" cy="292" r="1.25" fill="green" />
<circle cx="646" cy="292" r="1.25" fill="green" />
<circle cx="646" cy="307" r="1.25" fill="green" />
<circle cx="643" cy="307" r="1.25" fill="green" />
<circle cx="637" cy="313" r="1.25" fill="green" />
<circle cx="634" cy="313" r="1.25" fill="green" />
<circle cx="664" cy="307" r="1.25" fill="green" />
<circle cx="670" cy="292" r="1.25" fill="green" />
<circle cx="667" cy="292" r="1.25" fill="green" />
<circle cx="658" cy="313" r="1.25" fill="green" />
<circle cx="655" cy="313" r="1.25" fill="green" />
<circle cx="658" cy="304" r="1.25" fill="green" />
<circle cx="649" cy="310" r="1.25" fill="green" />
<circle cx="655" cy="295" r="1.25" fill="green" />
<circle cx="652" cy="310" r="1.25" fill="green" />
<circle cx="643" cy="316" r="1.25" fill="green" />
<circle cx="670" cy="310" r="1.25" fill="green" />
<circle cx="676" cy="295" r="1.25" fill="green" />
<circle cx="664" cy="316" r="1.25" fill="green" />
<circle cx="622" cy="319" r="2" fill="red" />
<text x="612" y="331" fill="black" >1</text>
<circle cx="80" cy="580" r="2" fill="black" />
<circle cx="20" cy="580" r="2" fill="black" />
<circle cx="60" cy="560" r="2" fill="black" />
<circle cx="40" cy="560" r="2" fill="black" />
<circle cx="20" cy="520" r="2" fill="black" />
<circle cx="60" cy="540" r="2" fill="black" />
<circle cx="80" cy="520" r="2" fill="black" />
<circle cx="40" cy="540" r="2" fill="black" />
<line x1="20" y1="520" x2="20" y2="580" stroke="black" />
<line x1="40" y1="540" x2="60" y2="540" stroke="black" />
<line x1="80" y1="520" x2="80" y2="580" stroke="black" />
<line x1="60" y1="540" x2="60" y2="560" stroke="black" />
<line x1="40" y1="560" x2="20" y2="580" stroke="black" />
<line x1="60" y1="560" x2="80" y2="580" stroke="black" />
<line x1="20" y1="580" x2="80" y2="580" stroke="black" />
<circle cx="625" cy="322" r="2" fill="red" />
<text x="615" y="334" fill="black" >2</text>
<circle cx="180" cy="580" r="2" fill="black" />
<circle cx="120" cy="580" r="2" fill="black" />
<circle cx="160" cy="560" r="2" fill="black" />
<circle cx="140" cy="560" r="2" fill="black" />
<circle cx="120" cy="520" r="2" fill="black" />
<circle cx="160" cy="540" r="2" fill="black" />
<circle cx="180" cy="520" r="2" fill="black" />
<circle cx="140" cy="540" r="2" fill="black" />
<line x1="120" y1="520" x2="120" y2="580" stroke="black" />
<line x1="140" y1="540" x2="160" y2="540" stroke="black" />
<line x1="180" y1="520" x2="160" y2="540" stroke="black" />
<line x1="160" y1="540" x2="160" y2="560" stroke="black" />
<line x1="140" y1="560" x2="120" y2="580" stroke="black" />
<line x1="160" y1="560" x2="180" y2="580" stroke="black" />
<line x1="120" y1="580" x2="180" y2="580" stroke="black" />
<circle cx="634" cy="325" r="2" fill="red" />
<text x="624" y="337" fill="black" >3</text>
<circle cx="280" cy="580" r="2" fill="black" />
<circle cx="220" cy="580" r="2" fill="black" />
<circle cx="260" cy="560" r="2" fill="black" />
<circle cx="240" cy="560" r="2" fill="black" />
<circle cx="220" cy="520" r="2" fill="black" />
<circle cx="260" cy="540" r="2" fill="black" />
<circle cx="280" cy="520" r="2" fill="black" />
<circle cx="240" cy="540" r="2" fill="black" />
<line x1="220" y1="520" x2="220" y2="580" stroke="black" />
<line x1="240" y1="540" x2="260" y2="540" stroke="black" />
<line x1="280" y1="520" x2="260" y2="540" stroke="black" />
<line x1="280" y1="520" x2="280" y2="580" stroke="black" />
<line x1="260" y1="540" x2="260" y2="560" stroke="black" />
<line x1="240" y1="560" x2="220" y2="580" stroke="black" />
<line x1="220" y1="580" x2="280" y2="580" stroke="black" />
<circle cx="619" cy="313" r="2" fill="red" />
<text x="609" y="325" fill="black" >4</text>
<circle cx="380" cy="580" r="2" fill="black" />
<circle cx="320" cy="580" r="2" fill="black" />
<circle cx="360" cy="560" r="2" fill="black" />
<circle cx="340" cy="560" r="2" fill="black" />
<circle cx="320" cy="520" r="2" fill="black" />
<circle cx="360" cy="540" r="2" fill="black" />
<circle cx="380" cy="520" r="2" fill="black" />
<circle cx="340" cy="540" r="2" fill="black" />
<line x1="320" y1="520" x2="380" y2="520" stroke="black" />
<line x1="320" y1="520" x2="320" y2="580" stroke="black" />
<line x1="340" y1="540" x2="360" y2="540" stroke="black" />
<line x1="360" y1="540" x2="360" y2="560" stroke="black" />
<line x1="340" y1="560" x2="320" y2="580" stroke="black" />
<line x1="360" y1="560" x2="380" y2="580" stroke="black" />
<line x1="320" y1="580" x2="380" y2="580" stroke="black" />


</svg>
